<svg xmlns="http://www.w3.org/2000/svg" xmlns:oryx="http://oryx-editor.org" id="_4AC2924D-609F-4A82-8C0C-32B0F4AC235A" width="698" height="265" xmlns:xlink="http://www.w3.org/1999/xlink" xmlns:svg="http://www.w3.org/2000/svg"><defs><marker id="_BA2572F7-1E15-4D86-8307-F115A0E734CEstart" refX="1" refY="5" markerUnits="userSpaceOnUse" markerWidth="17" markerHeight="11" orient="auto" fill="#000000" stroke="#000000"> 	  		<path id="_BA2572F7-1E15-4D86-8307-F115A0E734CEconditional" d="M 0 5 L 8 0 L 16 5 L 8 10 L 0 5" fill="white" stroke="#000000" stroke-width="1" display="none"/> 			<path id="_BA2572F7-1E15-4D86-8307-F115A0E734CEdefault" d="M 5 0 L 11 10" fill="white" stroke="#000000" stroke-width="1" display="none"/> 	  	</marker><marker id="_BA2572F7-1E15-4D86-8307-F115A0E734CEend" refX="15" refY="6" markerUnits="userSpaceOnUse" markerWidth="15" markerHeight="12" orient="auto" fill="#000000" stroke="#000000"> 	  		<path id="_BA2572F7-1E15-4D86-8307-F115A0E734CEframe2" d="M 0 1 L 15 6 L 0 11z" fill="#000000" stroke="#000000" stroke-linejoin="round" stroke-width="2"/> 	  	</marker><marker id="_65ED08CA-83FE-4CC2-B346-4AD2B5BB3B34start" refX="1" refY="5" markerUnits="userSpaceOnUse" markerWidth="17" markerHeight="11" orient="auto" fill="#000000" stroke="#000000"> 	  		<path id="_65ED08CA-83FE-4CC2-B346-4AD2B5BB3B34conditional" d="M 0 5 L 8 0 L 16 5 L 8 10 L 0 5" fill="white" stroke="#000000" stroke-width="1" display="none"/> 			<path id="_65ED08CA-83FE-4CC2-B346-4AD2B5BB3B34default" d="M 5 0 L 11 10" fill="white" stroke="#000000" stroke-width="1" display="none"/> 	  	</marker><marker id="_65ED08CA-83FE-4CC2-B346-4AD2B5BB3B34end" refX="15" refY="6" markerUnits="userSpaceOnUse" markerWidth="15" markerHeight="12" orient="auto" fill="#000000" stroke="#000000"> 	  		<path id="_65ED08CA-83FE-4CC2-B346-4AD2B5BB3B34frame2" d="M 0 1 L 15 6 L 0 11z" fill="#000000" stroke="#000000" stroke-linejoin="round" stroke-width="2"/> 	  	</marker><marker id="_B1F0763E-EF97-4BA2-BF10-682C37969790start" refX="1" refY="5" markerUnits="userSpaceOnUse" markerWidth="17" markerHeight="11" orient="auto" fill="#000000" stroke="#000000"> 	  		<path id="_B1F0763E-EF97-4BA2-BF10-682C37969790conditional" d="M 0 5 L 8 0 L 16 5 L 8 10 L 0 5" fill="white" stroke="#000000" stroke-width="1" display="none"/> 			<path id="_B1F0763E-EF97-4BA2-BF10-682C37969790default" d="M 5 0 L 11 10" fill="white" stroke="#000000" stroke-width="1" display="none"/> 	  	</marker><marker id="_B1F0763E-EF97-4BA2-BF10-682C37969790end" refX="15" refY="6" markerUnits="userSpaceOnUse" markerWidth="15" markerHeight="12" orient="auto" fill="#000000" stroke="#000000"> 	  		<path id="_B1F0763E-EF97-4BA2-BF10-682C37969790frame2" d="M 0 1 L 15 6 L 0 11z" fill="#000000" stroke="#000000" stroke-linejoin="round" stroke-width="2"/> 	  	</marker><marker id="_BF14E9C0-DEA3-441B-A016-D5ACCBDB7BE8start" refX="1" refY="5" markerUnits="userSpaceOnUse" markerWidth="17" markerHeight="11" orient="auto" fill="#000000" stroke="#000000"> 	  		<path id="_BF14E9C0-DEA3-441B-A016-D5ACCBDB7BE8conditional" d="M 0 5 L 8 0 L 16 5 L 8 10 L 0 5" fill="white" stroke="#000000" stroke-width="1" display="none"/> 			<path id="_BF14E9C0-DEA3-441B-A016-D5ACCBDB7BE8default" d="M 5 0 L 11 10" fill="white" stroke="#000000" stroke-width="1" display="none"/> 	  	</marker><marker id="_BF14E9C0-DEA3-441B-A016-D5ACCBDB7BE8end" refX="15" refY="6" markerUnits="userSpaceOnUse" markerWidth="15" markerHeight="12" orient="auto" fill="#000000" stroke="#000000"> 	  		<path id="_BF14E9C0-DEA3-441B-A016-D5ACCBDB7BE8frame2" d="M 0 1 L 15 6 L 0 11z" fill="#000000" stroke="#000000" stroke-linejoin="round" stroke-width="2"/> 	  	</marker></defs><g stroke="none" font-family="Verdana, sans-serif" font-size-adjust="none" font-style="normal" font-variant="normal" font-weight="normal" line-heigth="normal" font-size="12"><g class="stencils" transform="translate(15, 16)"><g class="me"/><g class="children"><g id="_62E6FB07-3080-48C0-B47E-940DC46AC519" bpmn2nodeid="processStartEvent"><g class="stencils" transform="translate(120, 165)"><g class="me"><g pointer-events="fill" id="_62E6FB07-3080-48C0-B47E-940DC46AC519">        <defs id="_62E6FB07-3080-48C0-B47E-940DC46AC519__62E6FB07-3080-48C0-B47E-940DC46AC519_5"> 		<radialGradient id="_62E6FB07-3080-48C0-B47E-940DC46AC519background" cx="10%" cy="10%" r="100%" fx="10%" fy="10%"> 			<stop offset="0%" stop-color="#ffffff" stop-opacity="1" id="_62E6FB07-3080-48C0-B47E-940DC46AC519__62E6FB07-3080-48C0-B47E-940DC46AC519_6"/> 			<stop id="_62E6FB07-3080-48C0-B47E-940DC46AC519fill_el" offset="100%" stop-color="#9acd32" stop-opacity="1"/> 		</radialGradient> 	</defs> 	     <circle id="_62E6FB07-3080-48C0-B47E-940DC46AC519bg_frame" cx="15" cy="15" r="15" stroke="#000000" fill="url(#_62E6FB07-3080-48C0-B47E-940DC46AC519background) white" stroke-width="1" style="stroke-dasharray: 5.5, 3"/>      <circle id="_62E6FB07-3080-48C0-B47E-940DC46AC519frame" cx="15" cy="15" r="15" stroke="#000000" fill="none" stroke-width="1" display="inherit"/>  	<text font-size="11" id="_62E6FB07-3080-48C0-B47E-940DC46AC519text_name" x="15" y="32" oryx:align="top center" stroke="black" stroke-width="0pt" letter-spacing="-0.01px" fill="#000000" text-anchor="middle" transform="rotate(0 15 32)" visibility="inherit" oryx:fontSize="11"><tspan x="15" y="32" dy="11">Start Loan Origination Process</tspan></text>   </g></g><g class="children" style="overflow:hidden"/><g class="edge"/></g><g class="controls"><g class="dockers"/><g class="magnets" transform="translate(120, 165)"><g pointer-events="all" display="none" transform="translate(7, 7)"><circle cx="8" cy="8" r="4" stroke="none" fill="red" fill-opacity="0.3"/></g></g></g></g><g id="_6F9CF78A-7FA6-43CB-B0E2-5309D856D30C" bpmn2nodeid="_8302DE6C-1B00-4511-A493-0FDF3947A8C6"><g class="stencils" transform="translate(195, 140)"><g class="me"><g pointer-events="fill" oryx:minimumSize="50 40" id="_6F9CF78A-7FA6-43CB-B0E2-5309D856D30C">   	<defs id="_6F9CF78A-7FA6-43CB-B0E2-5309D856D30C__6F9CF78A-7FA6-43CB-B0E2-5309D856D30C_17"> 		<radialGradient id="_6F9CF78A-7FA6-43CB-B0E2-5309D856D30Cbackground" cx="10%" cy="10%" r="100%" fx="10%" fy="10%"> 			<stop offset="0%" stop-color="#ffffff" stop-opacity="1" id="_6F9CF78A-7FA6-43CB-B0E2-5309D856D30C__6F9CF78A-7FA6-43CB-B0E2-5309D856D30C_18"/> 			<stop id="_6F9CF78A-7FA6-43CB-B0E2-5309D856D30Cfill_el" offset="100%" stop-color="#fafad2" stop-opacity="1"/> 		</radialGradient> 		<radialGradient id="_6F9CF78A-7FA6-43CB-B0E2-5309D856D30Cborderbackground" cx="10%" cy="10%" r="100%" fx="10%" fy="10%"> 			<stop offset="0%" stop-color="#ffffff" stop-opacity="1" id="_6F9CF78A-7FA6-43CB-B0E2-5309D856D30C__6F9CF78A-7FA6-43CB-B0E2-5309D856D30C_19"/> 			<stop id="_6F9CF78A-7FA6-43CB-B0E2-5309D856D30Cfill_border" offset="100%" stop-color="#000000" stop-opacity="1" stroke="#000000"/> 		</radialGradient> 	</defs> 	 	<rect id="_6F9CF78A-7FA6-43CB-B0E2-5309D856D30Ctext_frame" oryx:anchors="bottom top right left" x="1" y="1" width="94" height="79" rx="10" ry="10" stroke="none" stroke-width="0" fill="none"/> 	<rect id="_6F9CF78A-7FA6-43CB-B0E2-5309D856D30Cbg_frame" oryx:resize="vertical horizontal" x="0" y="0" width="100" height="80" rx="10" ry="10" stroke="#000000" stroke-width="1" fill="url(#_6F9CF78A-7FA6-43CB-B0E2-5309D856D30Cbackground) #ffffcc"/> 		<text font-size="12" id="_6F9CF78A-7FA6-43CB-B0E2-5309D856D30Ctext_name" x="50" y="40" oryx:align="middle center" oryx:fittoelem="text_frame" stroke="black" text-anchor="middle" stroke-width="0pt" letter-spacing="-0.01px" fill="#000000" transform="rotate(0 50 40)" visibility="inherit" oryx:fontSize="12"><tspan x="50" y="40" dy="-1" id="ext-gen585">Collect </tspan><tspan x="50" y="40" dy="11" id="ext-gen584">Application Data</tspan></text>     <g id="_6F9CF78A-7FA6-43CB-B0E2-5309D856D30CmanualTask" transform="scale(0.7,0.7) translate(8,8)" display="none">     	<path oryx:anchors="top left" id="_6F9CF78A-7FA6-43CB-B0E2-5309D856D30Cframe" style="opacity:1;fill:none;fill-opacity:1;stroke-width:1" d="M0.5,3.751l4.083-3.25c0,0,11.166,0.083,12.083,0.083s-2.417,2.917-1.5,2.917     s11.667,0,12.584,0c1.166,1.708-0.168,3.167-0.834,3.667s0.875,1.917-1,4.417c-0.75,0.25,0.75,1.875-1.333,3.333     c-1.167,0.583,0.583,1.542-1.25,2.833c-1.167,0-20.833,0.083-20.833,0.083l-2-1.333V3.751z" stroke="#000000"/> 		<path id="_6F9CF78A-7FA6-43CB-B0E2-5309D856D30Cframe2" oryx:anchors="top left" style="opacity:1;fill:none;stroke-width:2" d="M 13.5 7 L 27 7" stroke="#000000"/> 		<path id="_6F9CF78A-7FA6-43CB-B0E2-5309D856D30Cframe3" oryx:anchors="top left" style="opacity:1;fill:none;stroke-width:2" d="M 13.5 11 L 26 11" stroke="#000000"/> 		<path id="_6F9CF78A-7FA6-43CB-B0E2-5309D856D30Cframe4" oryx:anchors="top left" style="opacity:1;fill:none;stroke-width:1.5" d="M 14 14.5 L 25 14.5" stroke="#000000"/> 		<path id="_6F9CF78A-7FA6-43CB-B0E2-5309D856D30Cframe5" oryx:anchors="top left" style="opacity:1;fill:none;stroke-width:1.5" d="M 8.2 3.1 L 15 3.1" stroke="#000000"/> 	</g> 	 	<g id="_6F9CF78A-7FA6-43CB-B0E2-5309D856D30CbusinessRuleTask" transform="scale(0.7,0.7) translate(8,8)" display="none"> 		<rect id="_6F9CF78A-7FA6-43CB-B0E2-5309D856D30Cframe6" oryx:anchors="top left" x="0" y="0" width="22" height="4" style="opacity:1;fill:#B3B1B3;fill-opacity:1;" stroke="#000000"/> 		<rect id="_6F9CF78A-7FA6-43CB-B0E2-5309D856D30Cframe7" oryx:anchors="top left" x="0" y="4" style="opacity:1;fill:none;" width="22" height="12" stroke="#000000"/> 		<path id="_6F9CF78A-7FA6-43CB-B0E2-5309D856D30Cframe8" oryx:anchors="top left" style="opacity:1;fill:none;" d="M 0 10 L 22 10" stroke="#000000"/> 		<path id="_6F9CF78A-7FA6-43CB-B0E2-5309D856D30Cframe9" oryx:anchors="top left" style="opacity:1; fill:none;" d="M 7 4 L 7 16" stroke="#000000"/> 	</g> 	 	<g id="_6F9CF78A-7FA6-43CB-B0E2-5309D856D30CscriptTask" transform="scale(0.7,0.7) translate(8,8)" display="none"> 		<path oryx:anchors="top left" id="_6F9CF78A-7FA6-43CB-B0E2-5309D856D30Cframe10" style="opacity:1;fill:none;" stroke="#000000" d="M6.402,0.5h14.5c0,0-5.833,2.833-5.833,5.583s4.417,6,4.417,9.167    s-4.167,5.083-4.167,5.083H0.235c0,0,5-2.667,5-5s-4.583-6.75-4.583-9.25S6.402,0.5,6.402,0.5z"/> 		<path oryx:anchors="top left" id="_6F9CF78A-7FA6-43CB-B0E2-5309D856D30Cframe11" style="opacity:1;fill:none;stroke-width:1.5" d="M 3.5 4.5 L 13.5 4.5" stroke="#000000"/> 		<path oryx:anchors="top left" id="_6F9CF78A-7FA6-43CB-B0E2-5309D856D30Cframe12" style="opacity:1;fill:none;stroke-width:1.5" d="M 3.8 8.5 L 13.8 8.5" stroke="#000000"/> 		<path oryx:anchors="top left" id="_6F9CF78A-7FA6-43CB-B0E2-5309D856D30Cframe13" style="opacity:1;fill:none;stroke-width:1.5" d="M 6.3 12.5 L 16.3 12.5" stroke="#000000"/> 		<path oryx:anchors="top left" id="_6F9CF78A-7FA6-43CB-B0E2-5309D856D30Cframe14" style="opacity:1;fill:none;stroke-width:1.5" d="M 6.5 16.5 L 16.5 16.5" stroke="#000000"/> 	</g> 	 	<g id="_6F9CF78A-7FA6-43CB-B0E2-5309D856D30CuserTask" transform="scale(0.7,0.7) translate(8,8)" display="inherit"> 		<path id="_6F9CF78A-7FA6-43CB-B0E2-5309D856D30Cframe15" oryx:anchors="top left" style="opacity:1;fill:#F4F6F7" stroke="#000000" d="M0.585,24.167h24.083v-7.833c0,0-2.333-3.917-7.083-5.167h-9.25    c-4.417,1.333-7.833,5.75-7.833,5.75L0.585,24.167z"/> 		<path id="_6F9CF78A-7FA6-43CB-B0E2-5309D856D30Cframe16" oryx:anchors="top left" style="opacity:1;fill:none" d="M 6 20 L 6 24" stroke="#000000"/> 		<path id="_6F9CF78A-7FA6-43CB-B0E2-5309D856D30Cframe17" oryx:anchors="top left" style="opacity:1;fill:none" d="M 20 20 L 20 24" stroke="#000000"/> 		<circle id="_6F9CF78A-7FA6-43CB-B0E2-5309D856D30Cframe18" oryx:anchors="top left" fill="black" cx="13.002" cy="5.916" r="5.417" stroke="#000000"/> 		<path id="_6F9CF78A-7FA6-43CB-B0E2-5309D856D30Cframe19" oryx:anchors="top left" style="opacity:1;fill:#F0EFF0;" stroke="#000000" d="M8.043,7.083c0,0,2.814-2.426,5.376-1.807s4.624-0.693,4.624-0.693    c0.25,1.688,0.042,3.75-1.458,5.584c0,0,1.083,0.75,1.083,1.5s0.125,1.875-1,3s-5.5,1.25-6.75,0S8.668,12.834,8.668,12    s0.583-1.25,1.25-1.917C8.835,9.5,7.419,7.708,8.043,7.083z"/> 	</g> 	 	<g id="_6F9CF78A-7FA6-43CB-B0E2-5309D856D30CserviceTask" transform="scale(0.7,0.7) translate(8,8)" display="none"> 		<polygon oryx:anchors="top left" id="_6F9CF78A-7FA6-43CB-B0E2-5309D856D30Cframe20" style="opacity:1;fill:#ffffff" stroke="#000000" points="15.392,5.064 17.954,2.502 20.347,4.895 17.786,7.455     18.729,9.732 22.353,9.732 22.353,13.115 18.731,13.115 17.788,15.392 20.351,17.955 17.958,20.347 15.397,17.786 13.12,18.729     13.12,22.353 9.737,22.353 9.737,18.731 7.46,17.788 4.897,20.35 2.506,17.958 5.066,15.397 4.124,13.12 0.5,13.12 0.5,9.737     4.121,9.737 5.065,7.461 2.503,4.898 4.895,2.506 7.455,5.066 9.732,4.125 9.732,0.5 13.116,0.5 13.116,4.121 "/> 		<circle oryx:anchors="top left" id="_6F9CF78A-7FA6-43CB-B0E2-5309D856D30Cframe21" style="opacity:1;fill:none" stroke="#000000" cx="11.427" cy="11.426" r="3.714"/> 		<polygon oryx:anchors="top left" id="_6F9CF78A-7FA6-43CB-B0E2-5309D856D30Cframe22" style="opacity:1;fill:#ffffff" stroke="#000000" points="21.392,11.064 23.954,8.502 26.347,10.895 23.786,13.455     24.729,15.732 28.353,15.732 28.353,19.115 24.731,19.115 23.788,21.392 26.351,23.955 23.958,26.347 21.397,23.786 19.12,24.729     19.12,28.353 15.737,28.353 15.737,24.731 13.46,23.788 10.897,26.35 8.506,23.958 11.066,21.397 10.124,19.12 6.5,19.12     6.5,15.737 10.121,15.737 11.065,13.461 8.503,10.898 10.895,8.506 13.455,11.066 15.732,10.125 15.732,6.5 19.116,6.5     19.116,10.121 "/> 		<circle oryx:anchors="top left" id="_6F9CF78A-7FA6-43CB-B0E2-5309D856D30Cframe23" style="opacity:1;fill:none;" stroke="#000000" cx="17.427" cy="17.426" r="3.714"/> 	</g> 	 	<g id="_6F9CF78A-7FA6-43CB-B0E2-5309D856D30CsendTask" display="none"> 		<path id="_6F9CF78A-7FA6-43CB-B0E2-5309D856D30Cstframe24" oryx:anchors="left top" stroke="#FFFFFF" fill="black" stroke-width="1" d="M8,11 L8,21 L24,21 L24,11 L16,17z"/> 		<path id="_6F9CF78A-7FA6-43CB-B0E2-5309D856D30Cstframe25" oryx:anchors="left top" stroke="#FFFFFF" fill="black" stroke-width="1" d="M7,10 L16,17 L25 10z"/> 	</g> 	 	<g id="_6F9CF78A-7FA6-43CB-B0E2-5309D856D30CreceiveTask" display="none"> 		<path id="_6F9CF78A-7FA6-43CB-B0E2-5309D856D30Cframe26" oryx:anchors="left top" stroke="#000000" fill="none" stroke-width="1" d="M8,11 L8,21 L24,21 L24,11z M8,11 L16,17 L24,11"/> 	</g> 	 	<g id="_6F9CF78A-7FA6-43CB-B0E2-5309D856D30Cnone" display="inherit"/>  	<g id="_6F9CF78A-7FA6-43CB-B0E2-5309D856D30Csequential" display="none">         <path oryx:anchors="bottom" fill="none" stroke="#000000" stroke-width="2" d="M46,76h10M46,72h10 M46,68h10" id="_6F9CF78A-7FA6-43CB-B0E2-5309D856D30C__6F9CF78A-7FA6-43CB-B0E2-5309D856D30C_20"/>     </g>   </g></g><g class="children" style="overflow:hidden"/><g class="edge"/></g><g class="controls"><g class="dockers"/><g class="magnets" transform="translate(195, 140)"><g pointer-events="all" display="none" transform="translate(-7, 12)"><circle cx="8" cy="8" r="4" stroke="none" fill="red" fill-opacity="0.3"/></g><g pointer-events="all" display="none" transform="translate(-7, 32)"><circle cx="8" cy="8" r="4" stroke="none" fill="red" fill-opacity="0.3"/></g><g pointer-events="all" display="none" transform="translate(-7, 52)"><circle cx="8" cy="8" r="4" stroke="none" fill="red" fill-opacity="0.3"/></g><g pointer-events="all" display="none" transform="translate(17, 71)"><circle cx="8" cy="8" r="4" stroke="none" fill="red" fill-opacity="0.3"/></g><g pointer-events="all" display="none" transform="translate(42, 71)"><circle cx="8" cy="8" r="4" stroke="none" fill="red" fill-opacity="0.3"/></g><g pointer-events="all" display="none" transform="translate(67, 71)"><circle cx="8" cy="8" r="4" stroke="none" fill="red" fill-opacity="0.3"/></g><g pointer-events="all" display="none" transform="translate(91, 12)"><circle cx="8" cy="8" r="4" stroke="none" fill="red" fill-opacity="0.3"/></g><g pointer-events="all" display="none" transform="translate(91, 32)"><circle cx="8" cy="8" r="4" stroke="none" fill="red" fill-opacity="0.3"/></g><g pointer-events="all" display="none" transform="translate(91, 52)"><circle cx="8" cy="8" r="4" stroke="none" fill="red" fill-opacity="0.3"/></g><g pointer-events="all" display="none" transform="translate(17, -7)"><circle cx="8" cy="8" r="4" stroke="none" fill="red" fill-opacity="0.3"/></g><g pointer-events="all" display="none" transform="translate(42, -7)"><circle cx="8" cy="8" r="4" stroke="none" fill="red" fill-opacity="0.3"/></g><g pointer-events="all" display="none" transform="translate(67, -7)"><circle cx="8" cy="8" r="4" stroke="none" fill="red" fill-opacity="0.3"/></g><g pointer-events="all" display="none" transform="translate(42, 32)"><circle cx="8" cy="8" r="4" stroke="none" fill="red" fill-opacity="0.3"/></g></g></g></g><g id="_B41AE444-A763-47FB-BE5F-56865747007C" bpmn2nodeid="_D41BA8FE-7548-4C18-A4FC-3A7788B98AA7"><g class="stencils" transform="translate(340, 140)"><g class="me"><g pointer-events="fill" oryx:minimumSize="50 40" id="_B41AE444-A763-47FB-BE5F-56865747007C">   	<defs id="_B41AE444-A763-47FB-BE5F-56865747007C__B41AE444-A763-47FB-BE5F-56865747007C_17"> 		<radialGradient id="_B41AE444-A763-47FB-BE5F-56865747007Cbackground" cx="10%" cy="10%" r="100%" fx="10%" fy="10%"> 			<stop offset="0%" stop-color="#ffffff" stop-opacity="1" id="_B41AE444-A763-47FB-BE5F-56865747007C__B41AE444-A763-47FB-BE5F-56865747007C_18"/> 			<stop id="_B41AE444-A763-47FB-BE5F-56865747007Cfill_el" offset="100%" stop-color="#fafad2" stop-opacity="1"/> 		</radialGradient> 		<radialGradient id="_B41AE444-A763-47FB-BE5F-56865747007Cborderbackground" cx="10%" cy="10%" r="100%" fx="10%" fy="10%"> 			<stop offset="0%" stop-color="#ffffff" stop-opacity="1" id="_B41AE444-A763-47FB-BE5F-56865747007C__B41AE444-A763-47FB-BE5F-56865747007C_19"/> 			<stop id="_B41AE444-A763-47FB-BE5F-56865747007Cfill_border" offset="100%" stop-color="#000000" stop-opacity="1" stroke="#000000"/> 		</radialGradient> 	</defs> 	 	<rect id="_B41AE444-A763-47FB-BE5F-56865747007Ctext_frame" oryx:anchors="bottom top right left" x="1" y="1" width="94" height="79" rx="10" ry="10" stroke="none" stroke-width="0" fill="none"/> 	<rect id="_B41AE444-A763-47FB-BE5F-56865747007Cbg_frame" oryx:resize="vertical horizontal" x="0" y="0" width="100" height="80" rx="10" ry="10" stroke="#000000" stroke-width="1" fill="url(#_B41AE444-A763-47FB-BE5F-56865747007Cbackground) #ffffcc"/> 		<text font-size="12" id="_B41AE444-A763-47FB-BE5F-56865747007Ctext_name" x="50" y="40" oryx:align="middle center" oryx:fittoelem="text_frame" stroke="black" text-anchor="middle" stroke-width="0pt" letter-spacing="-0.01px" fill="#000000" transform="rotate(0 50 40)" visibility="inherit" oryx:fontSize="12"><tspan x="50" y="40" dy="-7" id="ext-gen589">Determine </tspan><tspan x="50" y="40" dy="5" id="ext-gen670">Loan Pre-</tspan><tspan x="50" y="40" dy="17" id="ext-gen596">Qualification</tspan></text>     <g id="_B41AE444-A763-47FB-BE5F-56865747007CmanualTask" transform="scale(0.7,0.7) translate(8,8)" display="none">     	<path oryx:anchors="top left" id="_B41AE444-A763-47FB-BE5F-56865747007Cframe" style="opacity:1;fill:none;fill-opacity:1;stroke-width:1" d="M0.5,3.751l4.083-3.25c0,0,11.166,0.083,12.083,0.083s-2.417,2.917-1.5,2.917     s11.667,0,12.584,0c1.166,1.708-0.168,3.167-0.834,3.667s0.875,1.917-1,4.417c-0.75,0.25,0.75,1.875-1.333,3.333     c-1.167,0.583,0.583,1.542-1.25,2.833c-1.167,0-20.833,0.083-20.833,0.083l-2-1.333V3.751z" stroke="#000000"/> 		<path id="_B41AE444-A763-47FB-BE5F-56865747007Cframe2" oryx:anchors="top left" style="opacity:1;fill:none;stroke-width:2" d="M 13.5 7 L 27 7" stroke="#000000"/> 		<path id="_B41AE444-A763-47FB-BE5F-56865747007Cframe3" oryx:anchors="top left" style="opacity:1;fill:none;stroke-width:2" d="M 13.5 11 L 26 11" stroke="#000000"/> 		<path id="_B41AE444-A763-47FB-BE5F-56865747007Cframe4" oryx:anchors="top left" style="opacity:1;fill:none;stroke-width:1.5" d="M 14 14.5 L 25 14.5" stroke="#000000"/> 		<path id="_B41AE444-A763-47FB-BE5F-56865747007Cframe5" oryx:anchors="top left" style="opacity:1;fill:none;stroke-width:1.5" d="M 8.2 3.1 L 15 3.1" stroke="#000000"/> 	</g> 	 	<g id="_B41AE444-A763-47FB-BE5F-56865747007CbusinessRuleTask" transform="scale(0.7,0.7) translate(8,8)" display="inherit"> 		<rect id="_B41AE444-A763-47FB-BE5F-56865747007Cframe6" oryx:anchors="top left" x="0" y="0" width="22" height="4" style="opacity:1;fill:#B3B1B3;fill-opacity:1;" stroke="#000000"/> 		<rect id="_B41AE444-A763-47FB-BE5F-56865747007Cframe7" oryx:anchors="top left" x="0" y="4" style="opacity:1;fill:none;" width="22" height="12" stroke="#000000"/> 		<path id="_B41AE444-A763-47FB-BE5F-56865747007Cframe8" oryx:anchors="top left" style="opacity:1;fill:none;" d="M 0 10 L 22 10" stroke="#000000"/> 		<path id="_B41AE444-A763-47FB-BE5F-56865747007Cframe9" oryx:anchors="top left" style="opacity:1; fill:none;" d="M 7 4 L 7 16" stroke="#000000"/> 	</g> 	 	<g id="_B41AE444-A763-47FB-BE5F-56865747007CscriptTask" transform="scale(0.7,0.7) translate(8,8)" display="none"> 		<path oryx:anchors="top left" id="_B41AE444-A763-47FB-BE5F-56865747007Cframe10" style="opacity:1;fill:none;" stroke="#000000" d="M6.402,0.5h14.5c0,0-5.833,2.833-5.833,5.583s4.417,6,4.417,9.167    s-4.167,5.083-4.167,5.083H0.235c0,0,5-2.667,5-5s-4.583-6.75-4.583-9.25S6.402,0.5,6.402,0.5z"/> 		<path oryx:anchors="top left" id="_B41AE444-A763-47FB-BE5F-56865747007Cframe11" style="opacity:1;fill:none;stroke-width:1.5" d="M 3.5 4.5 L 13.5 4.5" stroke="#000000"/> 		<path oryx:anchors="top left" id="_B41AE444-A763-47FB-BE5F-56865747007Cframe12" style="opacity:1;fill:none;stroke-width:1.5" d="M 3.8 8.5 L 13.8 8.5" stroke="#000000"/> 		<path oryx:anchors="top left" id="_B41AE444-A763-47FB-BE5F-56865747007Cframe13" style="opacity:1;fill:none;stroke-width:1.5" d="M 6.3 12.5 L 16.3 12.5" stroke="#000000"/> 		<path oryx:anchors="top left" id="_B41AE444-A763-47FB-BE5F-56865747007Cframe14" style="opacity:1;fill:none;stroke-width:1.5" d="M 6.5 16.5 L 16.5 16.5" stroke="#000000"/> 	</g> 	 	<g id="_B41AE444-A763-47FB-BE5F-56865747007CuserTask" transform="scale(0.7,0.7) translate(8,8)" display="none"> 		<path id="_B41AE444-A763-47FB-BE5F-56865747007Cframe15" oryx:anchors="top left" style="opacity:1;fill:#F4F6F7" stroke="#000000" d="M0.585,24.167h24.083v-7.833c0,0-2.333-3.917-7.083-5.167h-9.25    c-4.417,1.333-7.833,5.75-7.833,5.75L0.585,24.167z"/> 		<path id="_B41AE444-A763-47FB-BE5F-56865747007Cframe16" oryx:anchors="top left" style="opacity:1;fill:none" d="M 6 20 L 6 24" stroke="#000000"/> 		<path id="_B41AE444-A763-47FB-BE5F-56865747007Cframe17" oryx:anchors="top left" style="opacity:1;fill:none" d="M 20 20 L 20 24" stroke="#000000"/> 		<circle id="_B41AE444-A763-47FB-BE5F-56865747007Cframe18" oryx:anchors="top left" fill="black" cx="13.002" cy="5.916" r="5.417" stroke="#000000"/> 		<path id="_B41AE444-A763-47FB-BE5F-56865747007Cframe19" oryx:anchors="top left" style="opacity:1;fill:#F0EFF0;" stroke="#000000" d="M8.043,7.083c0,0,2.814-2.426,5.376-1.807s4.624-0.693,4.624-0.693    c0.25,1.688,0.042,3.75-1.458,5.584c0,0,1.083,0.75,1.083,1.5s0.125,1.875-1,3s-5.5,1.25-6.75,0S8.668,12.834,8.668,12    s0.583-1.25,1.25-1.917C8.835,9.5,7.419,7.708,8.043,7.083z"/> 	</g> 	 	<g id="_B41AE444-A763-47FB-BE5F-56865747007CserviceTask" transform="scale(0.7,0.7) translate(8,8)" display="none"> 		<polygon oryx:anchors="top left" id="_B41AE444-A763-47FB-BE5F-56865747007Cframe20" style="opacity:1;fill:#ffffff" stroke="#000000" points="15.392,5.064 17.954,2.502 20.347,4.895 17.786,7.455     18.729,9.732 22.353,9.732 22.353,13.115 18.731,13.115 17.788,15.392 20.351,17.955 17.958,20.347 15.397,17.786 13.12,18.729     13.12,22.353 9.737,22.353 9.737,18.731 7.46,17.788 4.897,20.35 2.506,17.958 5.066,15.397 4.124,13.12 0.5,13.12 0.5,9.737     4.121,9.737 5.065,7.461 2.503,4.898 4.895,2.506 7.455,5.066 9.732,4.125 9.732,0.5 13.116,0.5 13.116,4.121 "/> 		<circle oryx:anchors="top left" id="_B41AE444-A763-47FB-BE5F-56865747007Cframe21" style="opacity:1;fill:none" stroke="#000000" cx="11.427" cy="11.426" r="3.714"/> 		<polygon oryx:anchors="top left" id="_B41AE444-A763-47FB-BE5F-56865747007Cframe22" style="opacity:1;fill:#ffffff" stroke="#000000" points="21.392,11.064 23.954,8.502 26.347,10.895 23.786,13.455     24.729,15.732 28.353,15.732 28.353,19.115 24.731,19.115 23.788,21.392 26.351,23.955 23.958,26.347 21.397,23.786 19.12,24.729     19.12,28.353 15.737,28.353 15.737,24.731 13.46,23.788 10.897,26.35 8.506,23.958 11.066,21.397 10.124,19.12 6.5,19.12     6.5,15.737 10.121,15.737 11.065,13.461 8.503,10.898 10.895,8.506 13.455,11.066 15.732,10.125 15.732,6.5 19.116,6.5     19.116,10.121 "/> 		<circle oryx:anchors="top left" id="_B41AE444-A763-47FB-BE5F-56865747007Cframe23" style="opacity:1;fill:none;" stroke="#000000" cx="17.427" cy="17.426" r="3.714"/> 	</g> 	 	<g id="_B41AE444-A763-47FB-BE5F-56865747007CsendTask" display="none"> 		<path id="_B41AE444-A763-47FB-BE5F-56865747007Cstframe24" oryx:anchors="left top" stroke="#FFFFFF" fill="black" stroke-width="1" d="M8,11 L8,21 L24,21 L24,11 L16,17z"/> 		<path id="_B41AE444-A763-47FB-BE5F-56865747007Cstframe25" oryx:anchors="left top" stroke="#FFFFFF" fill="black" stroke-width="1" d="M7,10 L16,17 L25 10z"/> 	</g> 	 	<g id="_B41AE444-A763-47FB-BE5F-56865747007CreceiveTask" display="none"> 		<path id="_B41AE444-A763-47FB-BE5F-56865747007Cframe26" oryx:anchors="left top" stroke="#000000" fill="none" stroke-width="1" d="M8,11 L8,21 L24,21 L24,11z M8,11 L16,17 L24,11"/> 	</g> 	 	<g id="_B41AE444-A763-47FB-BE5F-56865747007Cnone" display="inherit"/>  	<g id="_B41AE444-A763-47FB-BE5F-56865747007Csequential" display="none">         <path oryx:anchors="bottom" fill="none" stroke="#000000" stroke-width="2" d="M46,76h10M46,72h10 M46,68h10" id="_B41AE444-A763-47FB-BE5F-56865747007C__B41AE444-A763-47FB-BE5F-56865747007C_20"/>     </g>   </g></g><g class="children" style="overflow:hidden"/><g class="edge"/></g><g class="controls"><g class="dockers"/><g class="magnets" transform="translate(340, 140)"><g pointer-events="all" display="none" transform="translate(-7, 12)"><circle cx="8" cy="8" r="4" stroke="none" fill="red" fill-opacity="0.3"/></g><g pointer-events="all" display="none" transform="translate(-7, 32)"><circle cx="8" cy="8" r="4" stroke="none" fill="red" fill-opacity="0.3"/></g><g pointer-events="all" display="none" transform="translate(-7, 52)"><circle cx="8" cy="8" r="4" stroke="none" fill="red" fill-opacity="0.3"/></g><g pointer-events="all" display="none" transform="translate(17, 71)"><circle cx="8" cy="8" r="4" stroke="none" fill="red" fill-opacity="0.3"/></g><g pointer-events="all" display="none" transform="translate(42, 71)"><circle cx="8" cy="8" r="4" stroke="none" fill="red" fill-opacity="0.3"/></g><g pointer-events="all" display="none" transform="translate(67, 71)"><circle cx="8" cy="8" r="4" stroke="none" fill="red" fill-opacity="0.3"/></g><g pointer-events="all" display="none" transform="translate(91, 12)"><circle cx="8" cy="8" r="4" stroke="none" fill="red" fill-opacity="0.3"/></g><g pointer-events="all" display="none" transform="translate(91, 32)"><circle cx="8" cy="8" r="4" stroke="none" fill="red" fill-opacity="0.3"/></g><g pointer-events="all" display="none" transform="translate(91, 52)"><circle cx="8" cy="8" r="4" stroke="none" fill="red" fill-opacity="0.3"/></g><g pointer-events="all" display="none" transform="translate(17, -7)"><circle cx="8" cy="8" r="4" stroke="none" fill="red" fill-opacity="0.3"/></g><g pointer-events="all" display="none" transform="translate(42, -7)"><circle cx="8" cy="8" r="4" stroke="none" fill="red" fill-opacity="0.3"/></g><g pointer-events="all" display="none" transform="translate(67, -7)"><circle cx="8" cy="8" r="4" stroke="none" fill="red" fill-opacity="0.3"/></g><g pointer-events="all" display="none" transform="translate(42, 32)"><circle cx="8" cy="8" r="4" stroke="none" fill="red" fill-opacity="0.3"/></g></g></g></g><g id="_46923732-E743-46AD-A1C5-90860743F61A" bpmn2nodeid="_B2B6F7B5-17D7-4872-9BF8-E117B182DB78"><g class="stencils" transform="translate(485, 140)"><g class="me"><g pointer-events="fill" oryx:minimumSize="50 40" id="_46923732-E743-46AD-A1C5-90860743F61A">   	<defs id="_46923732-E743-46AD-A1C5-90860743F61A__46923732-E743-46AD-A1C5-90860743F61A_17"> 		<radialGradient id="_46923732-E743-46AD-A1C5-90860743F61Abackground" cx="10%" cy="10%" r="100%" fx="10%" fy="10%"> 			<stop offset="0%" stop-color="#ffffff" stop-opacity="1" id="_46923732-E743-46AD-A1C5-90860743F61A__46923732-E743-46AD-A1C5-90860743F61A_18"/> 			<stop id="_46923732-E743-46AD-A1C5-90860743F61Afill_el" offset="100%" stop-color="#fafad2" stop-opacity="1"/> 		</radialGradient> 		<radialGradient id="_46923732-E743-46AD-A1C5-90860743F61Aborderbackground" cx="10%" cy="10%" r="100%" fx="10%" fy="10%"> 			<stop offset="0%" stop-color="#ffffff" stop-opacity="1" id="_46923732-E743-46AD-A1C5-90860743F61A__46923732-E743-46AD-A1C5-90860743F61A_19"/> 			<stop id="_46923732-E743-46AD-A1C5-90860743F61Afill_border" offset="100%" stop-color="#000000" stop-opacity="1" stroke="#000000"/> 		</radialGradient> 	</defs> 	 	<rect id="_46923732-E743-46AD-A1C5-90860743F61Atext_frame" oryx:anchors="bottom top right left" x="1" y="1" width="94" height="79" rx="10" ry="10" stroke="none" stroke-width="0" fill="none"/> 	<rect id="_46923732-E743-46AD-A1C5-90860743F61Abg_frame" oryx:resize="vertical horizontal" x="0" y="0" width="100" height="80" rx="10" ry="10" stroke="#000000" stroke-width="1" fill="url(#_46923732-E743-46AD-A1C5-90860743F61Abackground) #ffffcc"/> 		<text font-size="12" id="_46923732-E743-46AD-A1C5-90860743F61Atext_name" x="50" y="40" oryx:align="middle center" oryx:fittoelem="text_frame" stroke="black" text-anchor="middle" stroke-width="0pt" letter-spacing="-0.01px" fill="#000000" transform="rotate(0 50 40)" visibility="inherit" oryx:fontSize="12"><tspan x="50" y="40" dy="5" id="ext-gen714">to be continued</tspan></text>     <g id="_46923732-E743-46AD-A1C5-90860743F61AmanualTask" transform="scale(0.7,0.7) translate(8,8)" display="none">     	<path oryx:anchors="top left" id="_46923732-E743-46AD-A1C5-90860743F61Aframe" style="opacity:1;fill:none;fill-opacity:1;stroke-width:1" d="M0.5,3.751l4.083-3.25c0,0,11.166,0.083,12.083,0.083s-2.417,2.917-1.5,2.917     s11.667,0,12.584,0c1.166,1.708-0.168,3.167-0.834,3.667s0.875,1.917-1,4.417c-0.75,0.25,0.75,1.875-1.333,3.333     c-1.167,0.583,0.583,1.542-1.25,2.833c-1.167,0-20.833,0.083-20.833,0.083l-2-1.333V3.751z" stroke="#000000"/> 		<path id="_46923732-E743-46AD-A1C5-90860743F61Aframe2" oryx:anchors="top left" style="opacity:1;fill:none;stroke-width:2" d="M 13.5 7 L 27 7" stroke="#000000"/> 		<path id="_46923732-E743-46AD-A1C5-90860743F61Aframe3" oryx:anchors="top left" style="opacity:1;fill:none;stroke-width:2" d="M 13.5 11 L 26 11" stroke="#000000"/> 		<path id="_46923732-E743-46AD-A1C5-90860743F61Aframe4" oryx:anchors="top left" style="opacity:1;fill:none;stroke-width:1.5" d="M 14 14.5 L 25 14.5" stroke="#000000"/> 		<path id="_46923732-E743-46AD-A1C5-90860743F61Aframe5" oryx:anchors="top left" style="opacity:1;fill:none;stroke-width:1.5" d="M 8.2 3.1 L 15 3.1" stroke="#000000"/> 	</g> 	 	<g id="_46923732-E743-46AD-A1C5-90860743F61AbusinessRuleTask" transform="scale(0.7,0.7) translate(8,8)" display="none"> 		<rect id="_46923732-E743-46AD-A1C5-90860743F61Aframe6" oryx:anchors="top left" x="0" y="0" width="22" height="4" style="opacity:1;fill:#B3B1B3;fill-opacity:1;" stroke="#000000"/> 		<rect id="_46923732-E743-46AD-A1C5-90860743F61Aframe7" oryx:anchors="top left" x="0" y="4" style="opacity:1;fill:none;" width="22" height="12" stroke="#000000"/> 		<path id="_46923732-E743-46AD-A1C5-90860743F61Aframe8" oryx:anchors="top left" style="opacity:1;fill:none;" d="M 0 10 L 22 10" stroke="#000000"/> 		<path id="_46923732-E743-46AD-A1C5-90860743F61Aframe9" oryx:anchors="top left" style="opacity:1; fill:none;" d="M 7 4 L 7 16" stroke="#000000"/> 	</g> 	 	<g id="_46923732-E743-46AD-A1C5-90860743F61AscriptTask" transform="scale(0.7,0.7) translate(8,8)" display="inherit"> 		<path oryx:anchors="top left" id="_46923732-E743-46AD-A1C5-90860743F61Aframe10" style="opacity:1;fill:none;" stroke="#000000" d="M6.402,0.5h14.5c0,0-5.833,2.833-5.833,5.583s4.417,6,4.417,9.167    s-4.167,5.083-4.167,5.083H0.235c0,0,5-2.667,5-5s-4.583-6.75-4.583-9.25S6.402,0.5,6.402,0.5z"/> 		<path oryx:anchors="top left" id="_46923732-E743-46AD-A1C5-90860743F61Aframe11" style="opacity:1;fill:none;stroke-width:1.5" d="M 3.5 4.5 L 13.5 4.5" stroke="#000000"/> 		<path oryx:anchors="top left" id="_46923732-E743-46AD-A1C5-90860743F61Aframe12" style="opacity:1;fill:none;stroke-width:1.5" d="M 3.8 8.5 L 13.8 8.5" stroke="#000000"/> 		<path oryx:anchors="top left" id="_46923732-E743-46AD-A1C5-90860743F61Aframe13" style="opacity:1;fill:none;stroke-width:1.5" d="M 6.3 12.5 L 16.3 12.5" stroke="#000000"/> 		<path oryx:anchors="top left" id="_46923732-E743-46AD-A1C5-90860743F61Aframe14" style="opacity:1;fill:none;stroke-width:1.5" d="M 6.5 16.5 L 16.5 16.5" stroke="#000000"/> 	</g> 	 	<g id="_46923732-E743-46AD-A1C5-90860743F61AuserTask" transform="scale(0.7,0.7) translate(8,8)" display="none"> 		<path id="_46923732-E743-46AD-A1C5-90860743F61Aframe15" oryx:anchors="top left" style="opacity:1;fill:#F4F6F7" stroke="#000000" d="M0.585,24.167h24.083v-7.833c0,0-2.333-3.917-7.083-5.167h-9.25    c-4.417,1.333-7.833,5.75-7.833,5.75L0.585,24.167z"/> 		<path id="_46923732-E743-46AD-A1C5-90860743F61Aframe16" oryx:anchors="top left" style="opacity:1;fill:none" d="M 6 20 L 6 24" stroke="#000000"/> 		<path id="_46923732-E743-46AD-A1C5-90860743F61Aframe17" oryx:anchors="top left" style="opacity:1;fill:none" d="M 20 20 L 20 24" stroke="#000000"/> 		<circle id="_46923732-E743-46AD-A1C5-90860743F61Aframe18" oryx:anchors="top left" fill="black" cx="13.002" cy="5.916" r="5.417" stroke="#000000"/> 		<path id="_46923732-E743-46AD-A1C5-90860743F61Aframe19" oryx:anchors="top left" style="opacity:1;fill:#F0EFF0;" stroke="#000000" d="M8.043,7.083c0,0,2.814-2.426,5.376-1.807s4.624-0.693,4.624-0.693    c0.25,1.688,0.042,3.75-1.458,5.584c0,0,1.083,0.75,1.083,1.5s0.125,1.875-1,3s-5.5,1.25-6.75,0S8.668,12.834,8.668,12    s0.583-1.25,1.25-1.917C8.835,9.5,7.419,7.708,8.043,7.083z"/> 	</g> 	 	<g id="_46923732-E743-46AD-A1C5-90860743F61AserviceTask" transform="scale(0.7,0.7) translate(8,8)" display="none"> 		<polygon oryx:anchors="top left" id="_46923732-E743-46AD-A1C5-90860743F61Aframe20" style="opacity:1;fill:#ffffff" stroke="#000000" points="15.392,5.064 17.954,2.502 20.347,4.895 17.786,7.455     18.729,9.732 22.353,9.732 22.353,13.115 18.731,13.115 17.788,15.392 20.351,17.955 17.958,20.347 15.397,17.786 13.12,18.729     13.12,22.353 9.737,22.353 9.737,18.731 7.46,17.788 4.897,20.35 2.506,17.958 5.066,15.397 4.124,13.12 0.5,13.12 0.5,9.737     4.121,9.737 5.065,7.461 2.503,4.898 4.895,2.506 7.455,5.066 9.732,4.125 9.732,0.5 13.116,0.5 13.116,4.121 "/> 		<circle oryx:anchors="top left" id="_46923732-E743-46AD-A1C5-90860743F61Aframe21" style="opacity:1;fill:none" stroke="#000000" cx="11.427" cy="11.426" r="3.714"/> 		<polygon oryx:anchors="top left" id="_46923732-E743-46AD-A1C5-90860743F61Aframe22" style="opacity:1;fill:#ffffff" stroke="#000000" points="21.392,11.064 23.954,8.502 26.347,10.895 23.786,13.455     24.729,15.732 28.353,15.732 28.353,19.115 24.731,19.115 23.788,21.392 26.351,23.955 23.958,26.347 21.397,23.786 19.12,24.729     19.12,28.353 15.737,28.353 15.737,24.731 13.46,23.788 10.897,26.35 8.506,23.958 11.066,21.397 10.124,19.12 6.5,19.12     6.5,15.737 10.121,15.737 11.065,13.461 8.503,10.898 10.895,8.506 13.455,11.066 15.732,10.125 15.732,6.5 19.116,6.5     19.116,10.121 "/> 		<circle oryx:anchors="top left" id="_46923732-E743-46AD-A1C5-90860743F61Aframe23" style="opacity:1;fill:none;" stroke="#000000" cx="17.427" cy="17.426" r="3.714"/> 	</g> 	 	<g id="_46923732-E743-46AD-A1C5-90860743F61AsendTask" display="none"> 		<path id="_46923732-E743-46AD-A1C5-90860743F61Astframe24" oryx:anchors="left top" stroke="#FFFFFF" fill="black" stroke-width="1" d="M8,11 L8,21 L24,21 L24,11 L16,17z"/> 		<path id="_46923732-E743-46AD-A1C5-90860743F61Astframe25" oryx:anchors="left top" stroke="#FFFFFF" fill="black" stroke-width="1" d="M7,10 L16,17 L25 10z"/> 	</g> 	 	<g id="_46923732-E743-46AD-A1C5-90860743F61AreceiveTask" display="none"> 		<path id="_46923732-E743-46AD-A1C5-90860743F61Aframe26" oryx:anchors="left top" stroke="#000000" fill="none" stroke-width="1" d="M8,11 L8,21 L24,21 L24,11z M8,11 L16,17 L24,11"/> 	</g> 	 	<g id="_46923732-E743-46AD-A1C5-90860743F61Anone" display="inherit"/>  	<g id="_46923732-E743-46AD-A1C5-90860743F61Asequential" display="none">         <path oryx:anchors="bottom" fill="none" stroke="#000000" stroke-width="2" d="M46,76h10M46,72h10 M46,68h10" id="_46923732-E743-46AD-A1C5-90860743F61A__46923732-E743-46AD-A1C5-90860743F61A_20"/>     </g>   </g></g><g class="children" style="overflow:hidden"/><g class="edge"/></g><g class="controls"><g class="dockers"/><g class="magnets" transform="translate(485, 140)"><g pointer-events="all" display="none" transform="translate(-7, 12)"><circle cx="8" cy="8" r="4" stroke="none" fill="red" fill-opacity="0.3"/></g><g pointer-events="all" display="none" transform="translate(-7, 32)"><circle cx="8" cy="8" r="4" stroke="none" fill="red" fill-opacity="0.3"/></g><g pointer-events="all" display="none" transform="translate(-7, 52)"><circle cx="8" cy="8" r="4" stroke="none" fill="red" fill-opacity="0.3"/></g><g pointer-events="all" display="none" transform="translate(17, 71)"><circle cx="8" cy="8" r="4" stroke="none" fill="red" fill-opacity="0.3"/></g><g pointer-events="all" display="none" transform="translate(42, 71)"><circle cx="8" cy="8" r="4" stroke="none" fill="red" fill-opacity="0.3"/></g><g pointer-events="all" display="none" transform="translate(67, 71)"><circle cx="8" cy="8" r="4" stroke="none" fill="red" fill-opacity="0.3"/></g><g pointer-events="all" display="none" transform="translate(91, 12)"><circle cx="8" cy="8" r="4" stroke="none" fill="red" fill-opacity="0.3"/></g><g pointer-events="all" display="none" transform="translate(91, 32)"><circle cx="8" cy="8" r="4" stroke="none" fill="red" fill-opacity="0.3"/></g><g pointer-events="all" display="none" transform="translate(91, 52)"><circle cx="8" cy="8" r="4" stroke="none" fill="red" fill-opacity="0.3"/></g><g pointer-events="all" display="none" transform="translate(17, -7)"><circle cx="8" cy="8" r="4" stroke="none" fill="red" fill-opacity="0.3"/></g><g pointer-events="all" display="none" transform="translate(42, -7)"><circle cx="8" cy="8" r="4" stroke="none" fill="red" fill-opacity="0.3"/></g><g pointer-events="all" display="none" transform="translate(67, -7)"><circle cx="8" cy="8" r="4" stroke="none" fill="red" fill-opacity="0.3"/></g><g pointer-events="all" display="none" transform="translate(42, 32)"><circle cx="8" cy="8" r="4" stroke="none" fill="red" fill-opacity="0.3"/></g></g></g></g><g id="_722CD536-A187-4C9F-A797-462DBAFFDEBD" bpmn2nodeid="_C5FAAD63-87D3-46D7-9061-2907CD6596CE"><g class="stencils" transform="translate(630, 166)"><g class="me"><g pointer-events="fill" id="_722CD536-A187-4C9F-A797-462DBAFFDEBD">      <defs id="_722CD536-A187-4C9F-A797-462DBAFFDEBD__722CD536-A187-4C9F-A797-462DBAFFDEBD_5"> 		<radialGradient id="_722CD536-A187-4C9F-A797-462DBAFFDEBDbackground" cx="10%" cy="10%" r="100%" fx="10%" fy="10%"> 			<stop offset="0%" stop-color="#ffffff" stop-opacity="1" id="_722CD536-A187-4C9F-A797-462DBAFFDEBD__722CD536-A187-4C9F-A797-462DBAFFDEBD_6"/> 			<stop id="_722CD536-A187-4C9F-A797-462DBAFFDEBDfill_el" offset="100%" stop-color="#ff6347" stop-opacity="1"/> 		</radialGradient> 	</defs> 	     <circle id="_722CD536-A187-4C9F-A797-462DBAFFDEBDbg_frame" cx="14" cy="14" r="14" stroke="#000000" fill="url(#_722CD536-A187-4C9F-A797-462DBAFFDEBDbackground) white" stroke-width="3"/> 	<text font-size="11" id="_722CD536-A187-4C9F-A797-462DBAFFDEBDtext_name" x="14" y="30" oryx:align="top center" stroke="black" stroke-width="0pt" letter-spacing="-0.01px" fill="#000000" text-anchor="middle" transform="rotate(0 14 30)" visibility="inherit" oryx:fontSize="11"/>   </g></g><g class="children" style="overflow:hidden"/><g class="edge"/></g><g class="controls"><g class="dockers"/><g class="magnets" transform="translate(630, 166)"><g pointer-events="all" display="none" transform="translate(6, 6)"><circle cx="8" cy="8" r="4" stroke="none" fill="red" fill-opacity="0.3"/></g></g></g></g></g><g class="edge"><g id="_BA2572F7-1E15-4D86-8307-F115A0E734CE" bpmn2nodeid="_AA2BE6E3-F2EE-479D-A603-FCABB2F7FAF8"><g class="stencils"><g class="me"><g pointer-events="painted" bpmn2nodeid="_E12C2E47-7377-4DC4-8D90-F24E85F125D6"><path id="_BA2572F7-1E15-4D86-8307-F115A0E734CE_1" d="M150.609375 180L194.15625 180 " stroke="#000000" fill="none" stroke-width="2" stroke-linecap="round" stroke-linejoin="round" marker-start="url(#_BA2572F7-1E15-4D86-8307-F115A0E734CEstart)" marker-end="url(#_BA2572F7-1E15-4D86-8307-F115A0E734CEend)"/></g><text id="_BA2572F7-1E15-4D86-8307-F115A0E734CEtext_name" font-size="12" x="164.609375" y="166" oryx:edgePosition="startTop" stroke-width="0pt" letter-spacing="-0.01px" fill="#000000" text-anchor="start" transform="rotate(360 150.609375 180)" visibility="inherit" oryx:fontSize="12"/></g><g class="children" style="overflow:hidden"/><g class="edge"/></g><g class="controls"><g class="dockers"/><g class="magnets"/></g></g><g id="_65ED08CA-83FE-4CC2-B346-4AD2B5BB3B34" bpmn2nodeid="_75D7E9D7-AEB3-4F8D-8811-43465C3811C4"><g class="stencils"><g class="me"><g pointer-events="painted" bpmn2nodeid="_85A8CC80-651A-4287-BAC5-97A511BA3D7D"><path id="_65ED08CA-83FE-4CC2-B346-4AD2B5BB3B34_1" d="M295.84375 180L339.15625 180 " stroke="#000000" fill="none" stroke-width="2" stroke-linecap="round" stroke-linejoin="round" marker-start="url(#_65ED08CA-83FE-4CC2-B346-4AD2B5BB3B34start)" marker-end="url(#_65ED08CA-83FE-4CC2-B346-4AD2B5BB3B34end)"/></g><text id="_65ED08CA-83FE-4CC2-B346-4AD2B5BB3B34text_name" font-size="12" x="309.84375" y="166" oryx:edgePosition="startTop" stroke-width="0pt" letter-spacing="-0.01px" fill="#000000" text-anchor="start" transform="rotate(360 295.84375 180)" visibility="inherit" oryx:fontSize="12"/></g><g class="children" style="overflow:hidden"/><g class="edge"/></g><g class="controls"><g class="dockers"/><g class="magnets"/></g></g><g id="_B1F0763E-EF97-4BA2-BF10-682C37969790" bpmn2nodeid="_0D6A5993-EE4A-4DAF-ADFE-76C1937D210A"><g class="stencils"><g class="me"><g pointer-events="painted" bpmn2nodeid="_C566BE65-388E-4628-83FF-ECB7D0B1AC25"><path id="_B1F0763E-EF97-4BA2-BF10-682C37969790_1" d="M440.84375 180L484.15625 180 " stroke="#000000" fill="none" stroke-width="2" stroke-linecap="round" stroke-linejoin="round" marker-start="url(#_B1F0763E-EF97-4BA2-BF10-682C37969790start)" marker-end="url(#_B1F0763E-EF97-4BA2-BF10-682C37969790end)"/></g><text id="_B1F0763E-EF97-4BA2-BF10-682C37969790text_name" font-size="12" x="454.84375" y="166" oryx:edgePosition="startTop" stroke-width="0pt" letter-spacing="-0.01px" fill="#000000" text-anchor="start" transform="rotate(360 440.84375 180)" visibility="inherit" oryx:fontSize="12"/></g><g class="children" style="overflow:hidden"/><g class="edge"/></g><g class="controls"><g class="dockers"/><g class="magnets"/></g></g><g id="_BF14E9C0-DEA3-441B-A016-D5ACCBDB7BE8" bpmn2nodeid="_4057431E-51CD-4A6C-87E7-DC8CDD617FB9"><g class="stencils"><g class="me"><g pointer-events="painted" bpmn2nodeid="_0F4EBB50-3F71-4EAD-B481-89B5341E66DA"><path id="_BF14E9C0-DEA3-441B-A016-D5ACCBDB7BE8_1" d="M585.390625 180L629.375 180 " stroke="#000000" fill="none" stroke-width="2" stroke-linecap="round" stroke-linejoin="round" marker-start="url(#_BF14E9C0-DEA3-441B-A016-D5ACCBDB7BE8start)" marker-end="url(#_BF14E9C0-DEA3-441B-A016-D5ACCBDB7BE8end)"/></g><text id="_BF14E9C0-DEA3-441B-A016-D5ACCBDB7BE8text_name" font-size="12" x="599.390625" y="166" oryx:edgePosition="startTop" stroke-width="0pt" letter-spacing="-0.01px" fill="#000000" text-anchor="start" transform="rotate(360 585.390625 180)" visibility="inherit" oryx:fontSize="12"/></g><g class="children" style="overflow:hidden"/><g class="edge"/></g><g class="controls"><g class="dockers"/><g class="magnets"/></g></g></g><text id="_CA8010D8-C8F2-4D7F-B061-70CCE8DD043B" style="stroke-width:1;fill:rgb(177,194,214);font-family:arial;font-weight:bold" font-size="12" onclick="ORYX.Plugins.CanvasTitle.openTextualAnalysis()" onmouseover="ORYX.Plugins.CanvasTitle.addToolTip('_CA8010D8-C8F2-4D7F-B061-70CCE8DD043B')" transform="translate(10, 20)">Loan Origination Example v.1.0 (dmn-demo-201710wb.LoanOriginationExample)</text></g></g></svg>